<?xml version="1.0" encoding="UTF-8" standalone="no"?>
<!-- Uploaded to: SVG Repo, www.svgrepo.com, Transformed by: SVG Repo Mixer Tools -->

<svg
   version="1.1"
   id="Layer_1"
   viewBox="0 0 191.997 223.9965"
   xml:space="preserve"
   width="24"
   height="28"
   fill="#000000"
   sodipodi:docname="book-svgrepo-com(1).svg"
   xmlns:inkscape="http://www.inkscape.org/namespaces/inkscape"
   xmlns:sodipodi="http://sodipodi.sourceforge.net/DTD/sodipodi-0.dtd"
   xmlns="http://www.w3.org/2000/svg"
   xmlns:svg="http://www.w3.org/2000/svg"><defs
   id="defs42" /><sodipodi:namedview
   id="namedview40"
   pagecolor="#ffffff"
   bordercolor="#000000"
   borderopacity="0.25"
   inkscape:showpageshadow="2"
   inkscape:pageopacity="0.0"
   inkscape:pagecheckerboard="0"
   inkscape:deskcolor="#d1d1d1"
   showgrid="false" />





<g
   id="SVGRepo_iconCarrier"
   transform="matrix(0.36643268,0,0,0.36643268,-7.9585025,-0.39248903)"> <path
   style="fill:#808080"
   d="M 96.01,0 C 72.48,0 53.34,19.141 53.34,42.671 v 383.995 c 0,5.891 4.765,10.656 10.671,10.656 h 53.327 V 0 Z"
   id="path4" /> <path
   style="fill:#e6e9ed"
   d="m 96.01,394.666 c -17.687,0 -31.999,14.328 -31.999,32 0,17.672 14.312,31.998 31.999,31.998 h 351.986 v -63.998 z"
   id="path6" /> <path
   style="fill:#36454f"
   d="M 458.652,10.672 C 458.652,4.781 453.871,0 447.996,0 H 117.339 v 21.336 0 362.658 0 21.328 h 119.264 211.394 c 5.875,0 10.656,-4.766 10.656,-10.656 v 0 -383.994 z"
   id="path8" /> <g
   id="g14"> <path
   style="fill:#ccd1d9"
   d="m 192.01,437.322 h -85.343 c -5.875,0 -10.656,-4.766 -10.656,-10.656 0,-5.89 4.781,-10.672 10.656,-10.672 h 85.343 c 5.891,0 10.656,4.781 10.656,10.672 0,5.891 -4.766,10.656 -10.656,10.656 z"
   id="path10" /> <path
   style="fill:#ccd1d9"
   d="m 362.654,415.994 c -5.875,0 -10.656,4.781 -10.656,10.672 0,5.891 4.781,10.656 10.656,10.656 h 85.342 v -21.328 z"
   id="path12" /> </g> <rect
   x="160.007"
   y="74.666"
   style="fill:#e6e9ed"
   width="245.33"
   height="128"
   id="rect16" /> <g
   id="g30"> <path
   style="fill:#434a54"
   d="m 64.011,85.335 c 5.891,0 10.656,-4.773 10.656,-10.664 0,-5.891 -4.766,-10.672 -10.656,-10.672 H 53.339 v 21.336 z"
   id="path18" /> <path
   style="fill:#434a54"
   d="m 64.011,149.334 c 5.891,0 10.656,-4.773 10.656,-10.664 0,-5.89 -4.766,-10.671 -10.656,-10.671 H 53.339 v 21.335 z"
   id="path20" /> <path
   style="fill:#434a54"
   d="m 64.011,213.332 c 5.891,0 10.656,-4.773 10.656,-10.664 0,-5.89 -4.766,-10.671 -10.656,-10.671 H 53.339 v 21.335 z"
   id="path22" /> <path
   style="fill:#434a54"
   d="m 64.011,277.324 c 5.891,0 10.656,-4.766 10.656,-10.656 0,-5.89 -4.766,-10.672 -10.656,-10.672 H 53.339 v 21.328 z"
   id="path24" /> <path
   style="fill:#434a54"
   d="m 64.011,341.324 c 5.891,0 10.656,-4.766 10.656,-10.656 0,-5.89 -4.766,-10.672 -10.656,-10.672 H 53.339 v 21.328 z"
   id="path26" /> <path
   style="fill:#434a54"
   d="m 362.654,149.334 h -159.99 c -5.875,0 -10.656,-4.773 -10.656,-10.664 0,-5.89 4.781,-10.671 10.656,-10.671 h 159.99 c 5.906,0 10.688,4.781 10.688,10.671 0,5.89 -4.782,10.664 -10.688,10.664 z"
   id="path28" /> </g> <path
   style="fill:#36454f"
   d="m 458.652,458.664 c 0,-5.891 -4.781,-10.672 -10.656,-10.672 H 236.602 117.339 v 21.328 h 330.658 c 5.874,0 10.655,-4.765 10.655,-10.656 z"
   id="path32" /> <path
   style="fill:#808080"
   d="M 117.339,447.992 H 96.01 c -11.765,0 -21.343,-9.576 -21.343,-21.326 0,-11.766 9.578,-21.344 21.343,-21.344 h 21.328 V 383.994 H 96.01 c -23.53,0 -42.67,19.141 -42.67,42.672 0,23.514 19.14,42.654 42.67,42.654 h 21.328 c 0,0 0,-21.328 0.001,-21.328 z"
   id="path34" /> <path
   style="fill:#ed5564"
   d="m 181.338,426.666 h -10.671 -42.656 -10.672 -10.672 v 74.654 c 0,3.438 1.656,6.656 4.438,8.656 2.782,2 6.359,2.547 9.609,1.469 l 28.625,-9.547 28.625,9.547 c 1.109,0.359 2.234,0.547 3.375,0.547 2.203,0 4.391,-0.688 6.234,-2.016 2.781,-2 4.438,-5.219 4.438,-8.656 v -74.654 z"
   id="path36" /> </g>

</svg>
