<?xml version="1.0" encoding="UTF-8" standalone="no"?>
<!-- Uploaded to: SVG Repo, www.svgrepo.com, Transformed by: SVG Repo Mixer Tools -->

<svg
   width="30"
   height="30"
   viewBox="-5 0 97.078125 97.078125"
   fill="#000000"
   version="1.1"
   id="svg36"
   sodipodi:docname="neon-app-icon-svgrepo-com(1).svg"
   xmlns:inkscape="http://www.inkscape.org/namespaces/inkscape"
   xmlns:sodipodi="http://sodipodi.sourceforge.net/DTD/sodipodi-0.dtd"
   xmlns="http://www.w3.org/2000/svg"
   xmlns:svg="http://www.w3.org/2000/svg">
  <defs
     id="defs40" />
  <sodipodi:namedview
     id="namedview38"
     pagecolor="#ffffff"
     bordercolor="#000000"
     borderopacity="0.25"
     inkscape:showpageshadow="2"
     inkscape:pageopacity="0.0"
     inkscape:pagecheckerboard="0"
     inkscape:deskcolor="#d1d1d1"
     showgrid="false" />
  <g
     id="SVGRepo_iconCarrier"
     transform="matrix(0.47755343,0,0,0.51203646,-12.371402,-9.7315456)">
    <defs
       id="defs6">
      <clipPath
         id="clip-path">
        <path
           id="Path_63"
           data-name="Path 63"
           d="M 556.128,874.771 V 816.1 h -197.1 v 207.1 H 417.7 Z"
           fill="none" />
      </clipPath>
    </defs>
    <g
       id="Group_57"
       data-name="Group 57"
       transform="translate(-359.028,-816.095)">
      <g
         id="Group_55"
         data-name="Group 55">
        <g
           id="Group_54"
           data-name="Group 54"
           clip-path="url(#clip-path)">
          <circle
             id="Ellipse_100"
             data-name="Ellipse 100"
             cx="80"
             cy="80"
             r="80"
             transform="translate(377.576,844.756)"
             fill="#71797e"
             opacity="0.4" />
          <circle
             id="Ellipse_101"
             data-name="Ellipse 101"
             cx="80"
             cy="80"
             r="80"
             transform="translate(377.576,834.756)"
             fill="#71797e" />
        </g>
      </g>
      <circle
         id="Ellipse_102"
         data-name="Ellipse 102"
         cx="55.884998"
         cy="55.884998"
         r="55.884998"
         transform="translate(401.691,858.872)"
         fill="#f8e71c" />
      <circle
         id="Ellipse_103"
         data-name="Ellipse 103"
         cx="55.884998"
         cy="55.884998"
         r="55.884998"
         transform="translate(401.691,868.872)"
         fill="#f8e71c" />
      <g
         id="Group_56"
         data-name="Group 56">
        <rect
           id="Rectangle_48"
           data-name="Rectangle 48"
           width="129.118"
           height="92.454002"
           rx="4"
           transform="translate(393.017,878.529)"
           fill="#1f211e"
           opacity="0.4"
           x="0"
           y="0" />
        <rect
           id="Rectangle_49"
           data-name="Rectangle 49"
           width="129.118"
           height="92.454002"
           rx="4"
           transform="translate(393.017,868.529)"
           fill="#ffffff"
           x="0"
           y="0" />
        <path
           id="Path_64"
           data-name="Path 64"
           d="m 522.138,947.984 v 7 a 4,4 0 0 1 -4,4 h -121.12 a 4,4 0 0 1 -4,-4 v -7 a 4,4 0 0 0 4,4 h 121.12 a 4,4 0 0 0 4,-4 z"
           fill="#f0f2f1" />
        <path
           id="Path_65"
           data-name="Path 65"
           d="m 522.138,872.524 v 5.89 h -129.12 v -5.89 a 4.005,4.005 0 0 1 4,-4 h 121.12 a 4.005,4.005 0 0 1 4,4 z"
           fill="#ffffff" />
        <rect
           id="Rectangle_50"
           data-name="Rectangle 50"
           width="36.237"
           height="26.496"
           transform="translate(403.018,934.414)"
           fill="#51e4c2"
           x="0"
           y="0" />
        <circle
           id="Ellipse_104"
           data-name="Ellipse 104"
           cx="1.6950001"
           cy="1.6950001"
           r="1.6950001"
           transform="translate(399.996,871.774)"
           fill="#71797e" />
        <circle
           id="Ellipse_105"
           data-name="Ellipse 105"
           cx="1.6950001"
           cy="1.6950001"
           r="1.6950001"
           transform="translate(405.871,871.774)"
           fill="#f8e71c" />
        <circle
           id="Ellipse_106"
           data-name="Ellipse 106"
           cx="1.6950001"
           cy="1.6950001"
           r="1.6950001"
           transform="translate(411.746,871.774)"
           fill="#51e4c2" />
        <line
           id="Line_7"
           data-name="Line 7"
           x2="129.117"
           transform="translate(393.018,878.414)"
           fill="none"
           stroke="#e8edeb"
           stroke-miterlimit="10"
           stroke-width="1"
           x1="0"
           y1="0"
           y2="0" />
        <rect
           id="Rectangle_51"
           data-name="Rectangle 51"
           width="18.625"
           height="2.75"
           transform="translate(447.463,888.414)"
           fill="#e8edeb"
           x="0"
           y="0" />
        <rect
           id="Rectangle_52"
           data-name="Rectangle 52"
           width="64.625"
           height="2.75"
           transform="translate(447.463,898.414)"
           fill="#e8edeb"
           x="0"
           y="0" />
        <rect
           id="Rectangle_53"
           data-name="Rectangle 53"
           width="64.625"
           height="2.75"
           transform="translate(447.463,908.414)"
           fill="#e8edeb"
           x="0"
           y="0" />
        <rect
           id="Rectangle_54"
           data-name="Rectangle 54"
           width="18.625"
           height="2.75"
           transform="translate(447.463,934.414)"
           fill="#e8edeb"
           x="0"
           y="0" />
        <rect
           id="Rectangle_55"
           data-name="Rectangle 55"
           width="64.625"
           height="2.75"
           transform="translate(447.463,944.414)"
           fill="#e8edeb"
           x="0"
           y="0" />
        <rect
           id="Rectangle_56"
           data-name="Rectangle 56"
           width="64.625"
           height="2.75"
           transform="translate(447.463,954.414)"
           fill="#e8edeb"
           x="0"
           y="0" />
        <rect
           id="Rectangle_57"
           data-name="Rectangle 57"
           width="36.237"
           height="36.237"
           transform="translate(403.018,888.414)"
           fill="#c0c0c0"
           x="0"
           y="0" />
        <rect
           id="Rectangle_58"
           data-name="Rectangle 58"
           width="36.237"
           height="3.0910001"
           transform="translate(403.018,921.56)"
           fill="#252528"
           opacity="0.3"
           x="0"
           y="0" />
        <rect
           id="Rectangle_59"
           data-name="Rectangle 59"
           width="20.333"
           height="6.0700002"
           rx="3"
           transform="translate(461.255,918.581)"
           fill="#f8e71c"
           x="0"
           y="0" />
        <rect
           id="Rectangle_60"
           data-name="Rectangle 60"
           width="20.333"
           height="6.0700002"
           rx="3"
           transform="translate(491.255,918.581)"
           fill="#71797e"
           x="0"
           y="0" />
      </g>
    </g>
  </g>
</svg>
