<?xml version="1.0" encoding="UTF-8" standalone="no"?>
<!-- Uploaded to: SVG Repo, www.svgrepo.com, Transformed by: SVG Repo Mixer Tools -->

<svg
   version="1.1"
   id="Capa_1"
   viewBox="0 0 172.5 172.5"
   xml:space="preserve"
   width="24"
   height="24"
   fill="#36454f"
   stroke="#36454f"
   sodipodi:docname="doctors.svg"
   xmlns:inkscape="http://www.inkscape.org/namespaces/inkscape"
   xmlns:sodipodi="http://sodipodi.sourceforge.net/DTD/sodipodi-0.dtd"
   xmlns="http://www.w3.org/2000/svg"
   xmlns:svg="http://www.w3.org/2000/svg"><defs
   id="defs26" /><sodipodi:namedview
   id="namedview24"
   pagecolor="#ffffff"
   bordercolor="#000000"
   borderopacity="0.25"
   inkscape:showpageshadow="2"
   inkscape:pageopacity="0.0"
   inkscape:pagecheckerboard="0"
   inkscape:deskcolor="#d1d1d1"
   showgrid="false" />





<g
   id="SVGRepo_iconCarrier"
   transform="matrix(0.36779846,0,0,0.36779846,1.8688383,2.0030994)"> <g
   id="g20"> <path
   style="fill:#708090"
   d="m 230,203.06 h -29.375 v 50 h -31.25 v -50 H 85.04 v -30 H 120 V 133.1 h 30 v 39.96 h 109.375 v 50 h 31.25 v -50 h 84.335 v -30 H 340 V 103.1 h -30 v 39.96 h -80 v -36 h -49.96 v -30 H 230 V 0 C 206.98,0 187.01,12.97 176.94,31.99 158.72,20.55 134.93,19.31 115,30.81 95.07,42.32 84.25,63.54 85.04,85.04 63.54,84.25 42.32,95.07 30.81,115 19.31,134.93 20.55,158.72 31.99,176.94 12.97,187.01 0,206.98 0,230 c 0,23.02 12.97,42.99 31.99,53.06 H 230 Z"
   id="path4" /> <path
   style="fill:#36454f"
   d="M 428.01,176.94 C 439.45,158.72 440.69,134.93 429.19,115 417.68,95.07 396.46,84.25 374.96,85.04 375.75,63.54 364.93,42.32 345,30.81 325.07,19.31 301.28,20.55 283.06,31.99 272.99,12.97 253.02,0 230,0 v 77.06 h 50.04 v 30 H 230 v 36 h 80 V 103.1 h 30 v 39.96 h 34.96 v 30 h -84.335 v 50 h -31.25 v -50 H 230 v 110 H 428.01 C 447.03,272.99 460,253.02 460,230 c 0,-23.02 -12.97,-42.99 -31.99,-53.06 z m -34.5,76.12 h -30 v -30 h 30 z"
   id="path6" /> <path
   style="fill:#b2beb5"
   d="m 329.01,283.06 h -99 c 0,47.828 33.909,87.729 79,96.979 V 460 h 40 v -79.961 c -6.459,1.325 -13.148,2.021 -20,2.021 z"
   id="path8" /> <rect
   x="180.03999"
   y="77.059998"
   style="fill:#b2beb5"
   width="50"
   height="30"
   id="rect10" /> <polygon
   style="fill:#b2beb5"
   points="230,203.06 230,173.06 150,173.06 150,133.1 120,133.1 120,173.06 85.04,173.06 85.04,203.06 169.375,203.06 169.375,253.06 200.625,253.06 200.625,203.06 "
   id="polygon12" /> <rect
   x="230.03999"
   y="77.059998"
   style="fill:#708090"
   width="50"
   height="30"
   id="rect14" /> <rect
   x="363.51001"
   y="223.06"
   style="fill:#708090"
   width="30"
   height="30"
   id="rect16" /> <path
   style="fill:#708090"
   d="m 329.01,382.06 c 6.852,0 13.54,-0.697 20,-2.021 45.091,-9.249 79,-49.15 79,-96.979 h -99 z"
   id="path18" /> </g> </g>

</svg>
