<?xml version="1.0" encoding="UTF-8" standalone="no"?>
<!-- Uploaded to: SVG Repo, www.svgrepo.com, Transformed by: SVG Repo Mixer Tools -->

<svg
   width="24"
   height="24"
   viewBox="0 0 48 48"
   data-name="Layer 1"
   id="Layer_1"
   fill="#000000"
   version="1.1"
   xmlns="http://www.w3.org/2000/svg"
   xmlns:svg="http://www.w3.org/2000/svg">
  <defs
     id="defs58" />
  <g
     id="SVGRepo_iconCarrier"
     transform="matrix(0.40042458,0,0,0.40042458,-1.3757312,-2.3029936)">
    <defs
       id="defs6">
      <style
         id="style4">.cls-1{fill:#0437F2;}.cls-2{fill:#87CEEB;opacity:0.3;}.cls-3{fill:#393c54;}.cls-4{fill:#f85565;}.cls-5{fill:#fbc0aa;}.cls-6{fill:#f8dc25;}.cls-7{fill:#f2bc0f;}.cls-8{fill:#ffffff;}.cls-11,.cls-13,.cls-14,.cls-15,.cls-9{fill:none;stroke-linecap:round;}.cls-14,.cls-9{stroke:#fbc0aa;}.cls-13,.cls-14,.cls-15,.cls-9{stroke-linejoin:round;}.cls-9{stroke-width:12px;}.cls-10{fill:#ffd8c9;}.cls-11{stroke:#ffffff;stroke-miterlimit:10;stroke-width:3.68px;opacity:0.1;}.cls-12{fill:#515570;}.cls-13,.cls-15{stroke:#515570;stroke-width:2px;}.cls-14{stroke-width:4.71px;}.cls-15{opacity:0.2;}</style>
    </defs>
    <title
       id="title8" />
    <circle
       class="cls-1"
       cx="64"
       cy="64"
       r="60"
       id="circle10" />
    <circle
       class="cls-2"
       cx="64"
       cy="64"
       r="48"
       id="circle12" />
    <path
       class="cls-3"
       d="m 99,82 a 4,4 0 0 1 -4,-4 v -44 0 a 13,13 0 0 0 -25.9,0 v 0 l 6,48 a 12,12 0 0 0 24,0 z"
       id="path14" />
    <circle
       class="cls-4"
       cx="75"
       cy="36"
       r="10"
       id="circle16" />
    <path
       class="cls-3"
       d="m 63,28 v 0 a 29.41,29.41 0 0 1 29.41,29.41 v 6.12 A 10.94,10.94 0 0 1 81.47,74.47 H 44.53 A 10.94,10.94 0 0 1 33.59,63.53 V 57.41 A 29.41,29.41 0 0 1 63,28 Z"
       id="path18" />
    <circle
       class="cls-5"
       cx="85.980003"
       cy="74.309998"
       r="6.4299998"
       id="circle20" />
    <path
       class="cls-6"
       d="m 64,124 a 59.62,59.62 0 0 0 33,-9.92 l -2.66,-7.44 A 10,10 0 0 0 85,100 H 41.05 a 10,10 0 0 0 -9.42,6.64 L 29.36,113 A 59.74,59.74 0 0 0 64,124 Z"
       id="path22" />
    <path
       class="cls-7"
       d="M 82.92,100 H 43.08 a 20,20 0 0 0 39.84,0 z"
       id="path24" />
    <path
       class="cls-8"
       d="m 72,101.25 a 9,9 0 0 1 -18,0 c 0,-5 4,-3 9,-3 5,0 9,-1.97 9,3 z"
       id="path26" />
    <line
       class="cls-9"
       x1="63"
       x2="63"
       y1="87.75"
       y2="101.5"
       id="line28" />
    <circle
       class="cls-5"
       cx="40.02"
       cy="74.309998"
       r="6.4299998"
       id="circle30" />
    <path
       class="cls-10"
       d="m 63,98.84 a 23,23 0 0 1 -23,-23 V 60.76 a 23,23 0 0 1 46,0 V 75.87 A 23,23 0 0 1 63,98.84 Z"
       id="path32" />
    <path
       class="cls-11"
       d="M 44.82,51 A 19.9,19.9 0 0 1 62.4,38.54"
       id="path34" />
    <path
       class="cls-12"
       d="M 88.82,58.82 A 25.82,25.82 0 0 0 62.27,33 C 48.21,33.39 37.18,45.28 37.18,59.35 v 4 a 4.83,4.83 0 0 0 1.48,3.51 5.93,5.93 0 0 0 1.36,1 V 64 a 4,4 0 0 1 4,-4 h 5.38 a 1,1 0 0 0 0.9,-0.55 L 52,56 53.72,59.45 A 1,1 0 0 0 54.62,60 H 82 a 4,4 0 0 1 4,4 v 3.89 a 5.93,5.93 0 0 0 1.36,-1 4.83,4.83 0 0 0 1.48,-3.51 z"
       id="path36" />
    <path
       class="cls-13"
       d="m 70.67,75.28 a 3,3 0 0 1 6,0"
       id="path38" />
    <line
       class="cls-14"
       x1="62.5"
       x2="62.5"
       y1="77.5"
       y2="81.5"
       id="line40" />
    <line
       class="cls-15"
       x1="72"
       x2="79"
       y1="68"
       y2="68"
       id="line42" />
    <path
       class="cls-13"
       d="m 55,75.28 a 3,3 0 0 0 -6,0"
       id="path44" />
    <line
       class="cls-15"
       x1="54"
       x2="47"
       y1="68"
       y2="68"
       id="line46" />
    <path
       class="cls-3"
       d="m 70.55,86 a 1,1 0 0 1 0.94,1.07 8.56,8.56 0 0 1 -17,0 1,1 0 0 1 0.96,-1.07 z"
       id="path48" />
    <path
       class="cls-4"
       d="m 58,92.91 a 8.52,8.52 0 0 0 10.08,0 C 67,91.16 65.17,91 63,91 c -2.17,0 -4,0.16 -5,1.91 z"
       id="path50" />
    <path
       class="cls-8"
       d="M 68,88 H 58 a 1.84,1.84 0 0 1 -1.73,-2 h 13.5 A 1.84,1.84 0 0 1 68,88 Z"
       id="path52" />
  </g>
</svg>
