<?xml version="1.0" encoding="UTF-8" standalone="no"?>
<!-- Uploaded to: SVG Repo, www.svgrepo.com, Transformed by: SVG Repo Mixer Tools -->

<svg
   height="26"
   width="26"
   version="1.1"
   id="Layer_1"
   viewBox="0 0 208 208"
   xml:space="preserve"
   fill="#242424"
   stroke="#242424"
   xmlns="http://www.w3.org/2000/svg"
   xmlns:svg="http://www.w3.org/2000/svg"><defs
   id="defs396" />





<g
   id="SVGRepo_iconCarrier"
   transform="matrix(0.36379405,0,0,0.36379405,10.294667,-2.0040506)"> <circle
   style="fill:#708090"
   cx="256"
   cy="256"
   r="256"
   id="circle370" /> <path
   style="fill:#36454f"
   d="m 512,256 c 0,-12.743 -0.945,-25.266 -2.743,-37.509 l -91.02,-90.34 -60.506,37.076 -69.692,-68.439 -30.889,18.427 1.15,0.574 -34.466,44.449 55.842,56.801 -74.243,18.273 -64.652,55.655 22.076,23.018 C 126.588,344.096 98.535,367.409 98.154,367.79 L 241.978,511.614 C 246.62,511.864 251.294,512 256,512 397.384,512 512,397.384 512,256 Z"
   id="path372" /> <path
   style="fill:#e6f3ff"
   d="m 410.524,124.983 h -83.649 c -6.06,0 -10.971,4.911 -10.971,10.971 v 4.113 l -15.082,15.084 h 15.084 v 19.197 c 0,6.06 4.911,10.971 10.971,10.971 h 83.649 c 6.06,0 10.971,-4.911 10.971,-10.971 v -38.395 c -0.002,-6.058 -4.913,-10.97 -10.973,-10.97 z"
   id="path374" /> <circle
   style="fill:#ffd15d"
   cx="256"
   cy="128.586"
   r="45.132"
   id="circle376" /> <path
   style="fill:#f9b54c"
   d="m 256,83.444 c -0.193,0 -0.383,0.012 -0.574,0.014 v 90.241 c 0.191,0.002 0.381,0.014 0.574,0.014 24.928,0 45.135,-20.208 45.135,-45.135 0,-24.927 -20.207,-45.134 -45.135,-45.134 z"
   id="path378" /> <path
   d="m 162.909,271.036 c 0,-51.412 41.679,-93.091 93.091,-93.091 51.412,0 93.091,41.679 93.091,93.091 z"
   id="path380" /> <path
   d="m 256,177.945 c -0.193,0 -0.381,0.014 -0.574,0.014 v 93.077 h 93.665 c 0,-51.412 -41.679,-93.091 -93.091,-93.091 z"
   id="path382" /> <circle
   style="fill:#ffd15d"
   cx="162.909"
   cy="268.70499"
   r="31.396"
   id="circle384" /> <path
   style="fill:#f4e3c3"
   d="m 98.156,367.79 c 0,-35.762 28.991,-64.755 64.755,-64.755 35.764,0 64.755,28.991 64.755,64.755 z"
   id="path386" /> <circle
   style="fill:#ffd15d"
   cx="349.194"
   cy="268.70499"
   r="31.396"
   id="circle388" /> <path
   style="fill:#f4e3c3"
   d="m 284.444,367.79 c 0,-35.762 28.991,-64.755 64.755,-64.755 35.764,0 64.755,28.991 64.755,64.755 z"
   id="path390" /> </g>

</svg>
